<mxfile host="app.diagrams.net" modified="2023-09-24T23:04:11.244Z" agent="Mozilla/5.0 (Windows NT 10.0; Win64; x64) AppleWebKit/537.36 (KHTML, like Gecko) Chrome/116.0.0.0 Safari/537.36" etag="tWwh7DNXQIEuaUh3MHLL" version="21.8.2" type="device">
  <diagram id="C5RBs43oDa-KdzZeNtuy" name="Page-1">
    <mxGraphModel dx="1032" dy="550" grid="1" gridSize="10" guides="1" tooltips="1" connect="1" arrows="1" fold="1" page="1" pageScale="1" pageWidth="827" pageHeight="1169" math="0" shadow="0">
      <root>
        <mxCell id="WIyWlLk6GJQsqaUBKTNV-0" />
        <mxCell id="WIyWlLk6GJQsqaUBKTNV-1" parent="WIyWlLk6GJQsqaUBKTNV-0" />
        <mxCell id="zkfFHV4jXpPFQw0GAbJ--26" value="" style="endArrow=open;shadow=0;strokeWidth=1;rounded=0;endFill=1;edgeStyle=elbowEdgeStyle;elbow=vertical;" parent="WIyWlLk6GJQsqaUBKTNV-1" target="zkfFHV4jXpPFQw0GAbJ--17" edge="1">
          <mxGeometry x="0.5" y="41" relative="1" as="geometry">
            <mxPoint x="380" y="189" as="sourcePoint" />
            <mxPoint x="540" y="192" as="targetPoint" />
            <mxPoint x="-40" y="32" as="offset" />
          </mxGeometry>
        </mxCell>
        <mxCell id="zkfFHV4jXpPFQw0GAbJ--27" value="0..1" style="resizable=0;align=left;verticalAlign=bottom;labelBackgroundColor=none;fontSize=12;" parent="zkfFHV4jXpPFQw0GAbJ--26" connectable="0" vertex="1">
          <mxGeometry x="-1" relative="1" as="geometry">
            <mxPoint y="4" as="offset" />
          </mxGeometry>
        </mxCell>
        <mxCell id="zkfFHV4jXpPFQw0GAbJ--28" value="1" style="resizable=0;align=right;verticalAlign=bottom;labelBackgroundColor=none;fontSize=12;" parent="zkfFHV4jXpPFQw0GAbJ--26" connectable="0" vertex="1">
          <mxGeometry x="1" relative="1" as="geometry">
            <mxPoint x="-7" y="4" as="offset" />
          </mxGeometry>
        </mxCell>
        <mxCell id="dxGweCfHrk7tsgKn44BW-39" value="Change" style="swimlane;fontStyle=0;align=center;verticalAlign=top;childLayout=stackLayout;horizontal=1;startSize=30;horizontalStack=0;resizeParent=1;resizeLast=0;collapsible=1;marginBottom=0;rounded=0;shadow=0;strokeWidth=1;" vertex="1" parent="WIyWlLk6GJQsqaUBKTNV-1">
          <mxGeometry x="340" y="602" width="160" height="218" as="geometry">
            <mxRectangle x="230" y="140" width="160" height="26" as="alternateBounds" />
          </mxGeometry>
        </mxCell>
        <mxCell id="dxGweCfHrk7tsgKn44BW-55" value="+ name" style="text;align=left;verticalAlign=top;spacingLeft=4;spacingRight=4;overflow=hidden;rotatable=0;points=[[0,0.5],[1,0.5]];portConstraint=eastwest;" vertex="1" parent="dxGweCfHrk7tsgKn44BW-39">
          <mxGeometry y="30" width="160" height="26" as="geometry" />
        </mxCell>
        <mxCell id="dxGweCfHrk7tsgKn44BW-56" value="+ changetype" style="text;align=left;verticalAlign=top;spacingLeft=4;spacingRight=4;overflow=hidden;rotatable=0;points=[[0,0.5],[1,0.5]];portConstraint=eastwest;" vertex="1" parent="dxGweCfHrk7tsgKn44BW-39">
          <mxGeometry y="56" width="160" height="26" as="geometry" />
        </mxCell>
        <mxCell id="dxGweCfHrk7tsgKn44BW-50" value="+ kwargs" style="text;align=left;verticalAlign=top;spacingLeft=4;spacingRight=4;overflow=hidden;rotatable=0;points=[[0,0.5],[1,0.5]];portConstraint=eastwest;" vertex="1" parent="dxGweCfHrk7tsgKn44BW-39">
          <mxGeometry y="82" width="160" height="26" as="geometry" />
        </mxCell>
        <mxCell id="dxGweCfHrk7tsgKn44BW-42" value="" style="line;html=1;strokeWidth=1;align=left;verticalAlign=middle;spacingTop=-1;spacingLeft=3;spacingRight=3;rotatable=0;labelPosition=right;points=[];portConstraint=eastwest;" vertex="1" parent="dxGweCfHrk7tsgKn44BW-39">
          <mxGeometry y="108" width="160" height="26" as="geometry" />
        </mxCell>
        <mxCell id="dxGweCfHrk7tsgKn44BW-81" value="+ get_name()" style="text;align=left;verticalAlign=top;spacingLeft=4;spacingRight=4;overflow=hidden;rotatable=0;points=[[0,0.5],[1,0.5]];portConstraint=eastwest;" vertex="1" parent="dxGweCfHrk7tsgKn44BW-39">
          <mxGeometry y="134" width="160" height="26" as="geometry" />
        </mxCell>
        <mxCell id="dxGweCfHrk7tsgKn44BW-80" value="+ get_changetype()" style="text;align=left;verticalAlign=top;spacingLeft=4;spacingRight=4;overflow=hidden;rotatable=0;points=[[0,0.5],[1,0.5]];portConstraint=eastwest;" vertex="1" parent="dxGweCfHrk7tsgKn44BW-39">
          <mxGeometry y="160" width="160" height="26" as="geometry" />
        </mxCell>
        <mxCell id="dxGweCfHrk7tsgKn44BW-79" value="+ get_kwargs()" style="text;align=left;verticalAlign=top;spacingLeft=4;spacingRight=4;overflow=hidden;rotatable=0;points=[[0,0.5],[1,0.5]];portConstraint=eastwest;" vertex="1" parent="dxGweCfHrk7tsgKn44BW-39">
          <mxGeometry y="186" width="160" height="26" as="geometry" />
        </mxCell>
        <mxCell id="dxGweCfHrk7tsgKn44BW-57" value="ChangeType" style="swimlane;fontStyle=0;align=center;verticalAlign=top;childLayout=stackLayout;horizontal=1;startSize=30;horizontalStack=0;resizeParent=1;resizeLast=0;collapsible=1;marginBottom=0;rounded=0;shadow=0;strokeWidth=1;" vertex="1" parent="WIyWlLk6GJQsqaUBKTNV-1">
          <mxGeometry x="130" y="532" width="160" height="358" as="geometry">
            <mxRectangle x="230" y="140" width="160" height="26" as="alternateBounds" />
          </mxGeometry>
        </mxCell>
        <mxCell id="dxGweCfHrk7tsgKn44BW-58" value="+ EDIT_NAME" style="text;align=left;verticalAlign=top;spacingLeft=4;spacingRight=4;overflow=hidden;rotatable=0;points=[[0,0.5],[1,0.5]];portConstraint=eastwest;" vertex="1" parent="dxGweCfHrk7tsgKn44BW-57">
          <mxGeometry y="30" width="160" height="26" as="geometry" />
        </mxCell>
        <mxCell id="dxGweCfHrk7tsgKn44BW-59" value="+ EDIT_PHONE" style="text;align=left;verticalAlign=top;spacingLeft=4;spacingRight=4;overflow=hidden;rotatable=0;points=[[0,0.5],[1,0.5]];portConstraint=eastwest;" vertex="1" parent="dxGweCfHrk7tsgKn44BW-57">
          <mxGeometry y="56" width="160" height="26" as="geometry" />
        </mxCell>
        <mxCell id="dxGweCfHrk7tsgKn44BW-60" value="+ EDIT_EMAIL" style="text;align=left;verticalAlign=top;spacingLeft=4;spacingRight=4;overflow=hidden;rotatable=0;points=[[0,0.5],[1,0.5]];portConstraint=eastwest;" vertex="1" parent="dxGweCfHrk7tsgKn44BW-57">
          <mxGeometry y="82" width="160" height="26" as="geometry" />
        </mxCell>
        <mxCell id="dxGweCfHrk7tsgKn44BW-61" value="+ ADD_PHONE" style="text;align=left;verticalAlign=top;spacingLeft=4;spacingRight=4;overflow=hidden;rotatable=0;points=[[0,0.5],[1,0.5]];portConstraint=eastwest;" vertex="1" parent="dxGweCfHrk7tsgKn44BW-57">
          <mxGeometry y="108" width="160" height="26" as="geometry" />
        </mxCell>
        <mxCell id="dxGweCfHrk7tsgKn44BW-62" value="+ ADD_EMAIL" style="text;align=left;verticalAlign=top;spacingLeft=4;spacingRight=4;overflow=hidden;rotatable=0;points=[[0,0.5],[1,0.5]];portConstraint=eastwest;" vertex="1" parent="dxGweCfHrk7tsgKn44BW-57">
          <mxGeometry y="134" width="160" height="26" as="geometry" />
        </mxCell>
        <mxCell id="dxGweCfHrk7tsgKn44BW-63" value="+ REMOVE_PHONE" style="text;align=left;verticalAlign=top;spacingLeft=4;spacingRight=4;overflow=hidden;rotatable=0;points=[[0,0.5],[1,0.5]];portConstraint=eastwest;" vertex="1" parent="dxGweCfHrk7tsgKn44BW-57">
          <mxGeometry y="160" width="160" height="26" as="geometry" />
        </mxCell>
        <mxCell id="dxGweCfHrk7tsgKn44BW-64" value="+ REMOVE_EMAIL" style="text;align=left;verticalAlign=top;spacingLeft=4;spacingRight=4;overflow=hidden;rotatable=0;points=[[0,0.5],[1,0.5]];portConstraint=eastwest;" vertex="1" parent="dxGweCfHrk7tsgKn44BW-57">
          <mxGeometry y="186" width="160" height="26" as="geometry" />
        </mxCell>
        <mxCell id="dxGweCfHrk7tsgKn44BW-65" value="+ EDIT_BIRTHDAY" style="text;align=left;verticalAlign=top;spacingLeft=4;spacingRight=4;overflow=hidden;rotatable=0;points=[[0,0.5],[1,0.5]];portConstraint=eastwest;" vertex="1" parent="dxGweCfHrk7tsgKn44BW-57">
          <mxGeometry y="212" width="160" height="26" as="geometry" />
        </mxCell>
        <mxCell id="dxGweCfHrk7tsgKn44BW-66" value="+ REMOVE_BIRTHDAY" style="text;align=left;verticalAlign=top;spacingLeft=4;spacingRight=4;overflow=hidden;rotatable=0;points=[[0,0.5],[1,0.5]];portConstraint=eastwest;" vertex="1" parent="dxGweCfHrk7tsgKn44BW-57">
          <mxGeometry y="238" width="160" height="26" as="geometry" />
        </mxCell>
        <mxCell id="dxGweCfHrk7tsgKn44BW-67" value="+ EDIT_ADDRESS" style="text;align=left;verticalAlign=top;spacingLeft=4;spacingRight=4;overflow=hidden;rotatable=0;points=[[0,0.5],[1,0.5]];portConstraint=eastwest;" vertex="1" parent="dxGweCfHrk7tsgKn44BW-57">
          <mxGeometry y="264" width="160" height="26" as="geometry" />
        </mxCell>
        <mxCell id="dxGweCfHrk7tsgKn44BW-68" value="+ REMOVE_ADDRESS" style="text;align=left;verticalAlign=top;spacingLeft=4;spacingRight=4;overflow=hidden;rotatable=0;points=[[0,0.5],[1,0.5]];portConstraint=eastwest;" vertex="1" parent="dxGweCfHrk7tsgKn44BW-57">
          <mxGeometry y="290" width="160" height="26" as="geometry" />
        </mxCell>
        <mxCell id="dxGweCfHrk7tsgKn44BW-69" value="" style="line;html=1;strokeWidth=1;align=left;verticalAlign=middle;spacingTop=-1;spacingLeft=3;spacingRight=3;rotatable=0;labelPosition=right;points=[];portConstraint=eastwest;" vertex="1" parent="dxGweCfHrk7tsgKn44BW-57">
          <mxGeometry y="316" width="160" height="26" as="geometry" />
        </mxCell>
        <mxCell id="dxGweCfHrk7tsgKn44BW-101" value="ABIterator" style="swimlane;fontStyle=0;align=center;verticalAlign=top;childLayout=stackLayout;horizontal=1;startSize=30;horizontalStack=0;resizeParent=1;resizeLast=0;collapsible=1;marginBottom=0;rounded=0;shadow=0;strokeWidth=1;" vertex="1" parent="WIyWlLk6GJQsqaUBKTNV-1">
          <mxGeometry x="1360" y="532" width="160" height="250" as="geometry">
            <mxRectangle x="230" y="140" width="160" height="26" as="alternateBounds" />
          </mxGeometry>
        </mxCell>
        <mxCell id="dxGweCfHrk7tsgKn44BW-102" value="+ collection" style="text;align=left;verticalAlign=top;spacingLeft=4;spacingRight=4;overflow=hidden;rotatable=0;points=[[0,0.5],[1,0.5]];portConstraint=eastwest;" vertex="1" parent="dxGweCfHrk7tsgKn44BW-101">
          <mxGeometry y="30" width="160" height="26" as="geometry" />
        </mxCell>
        <mxCell id="dxGweCfHrk7tsgKn44BW-103" value="+ n" style="text;align=left;verticalAlign=top;spacingLeft=4;spacingRight=4;overflow=hidden;rotatable=0;points=[[0,0.5],[1,0.5]];portConstraint=eastwest;" vertex="1" parent="dxGweCfHrk7tsgKn44BW-101">
          <mxGeometry y="56" width="160" height="26" as="geometry" />
        </mxCell>
        <mxCell id="dxGweCfHrk7tsgKn44BW-104" value="+ start_idx" style="text;align=left;verticalAlign=top;spacingLeft=4;spacingRight=4;overflow=hidden;rotatable=0;points=[[0,0.5],[1,0.5]];portConstraint=eastwest;" vertex="1" parent="dxGweCfHrk7tsgKn44BW-101">
          <mxGeometry y="82" width="160" height="26" as="geometry" />
        </mxCell>
        <mxCell id="dxGweCfHrk7tsgKn44BW-105" value="" style="line;html=1;strokeWidth=1;align=left;verticalAlign=middle;spacingTop=-1;spacingLeft=3;spacingRight=3;rotatable=0;labelPosition=right;points=[];portConstraint=eastwest;" vertex="1" parent="dxGweCfHrk7tsgKn44BW-101">
          <mxGeometry y="108" width="160" height="26" as="geometry" />
        </mxCell>
        <mxCell id="dxGweCfHrk7tsgKn44BW-106" value="+ set_collection()" style="text;align=left;verticalAlign=top;spacingLeft=4;spacingRight=4;overflow=hidden;rotatable=0;points=[[0,0.5],[1,0.5]];portConstraint=eastwest;" vertex="1" parent="dxGweCfHrk7tsgKn44BW-101">
          <mxGeometry y="134" width="160" height="26" as="geometry" />
        </mxCell>
        <mxCell id="dxGweCfHrk7tsgKn44BW-107" value="+ set_n()" style="text;align=left;verticalAlign=top;spacingLeft=4;spacingRight=4;overflow=hidden;rotatable=0;points=[[0,0.5],[1,0.5]];portConstraint=eastwest;" vertex="1" parent="dxGweCfHrk7tsgKn44BW-101">
          <mxGeometry y="160" width="160" height="26" as="geometry" />
        </mxCell>
        <mxCell id="dxGweCfHrk7tsgKn44BW-108" value="+ __iter__()" style="text;align=left;verticalAlign=top;spacingLeft=4;spacingRight=4;overflow=hidden;rotatable=0;points=[[0,0.5],[1,0.5]];portConstraint=eastwest;" vertex="1" parent="dxGweCfHrk7tsgKn44BW-101">
          <mxGeometry y="186" width="160" height="26" as="geometry" />
        </mxCell>
        <mxCell id="dxGweCfHrk7tsgKn44BW-110" value="+ __next__()" style="text;align=left;verticalAlign=top;spacingLeft=4;spacingRight=4;overflow=hidden;rotatable=0;points=[[0,0.5],[1,0.5]];portConstraint=eastwest;" vertex="1" parent="dxGweCfHrk7tsgKn44BW-101">
          <mxGeometry y="212" width="160" height="26" as="geometry" />
        </mxCell>
        <mxCell id="dxGweCfHrk7tsgKn44BW-111" value="Record" style="swimlane;fontStyle=0;align=center;verticalAlign=top;childLayout=stackLayout;horizontal=1;startSize=26;horizontalStack=0;resizeParent=1;resizeLast=0;collapsible=1;marginBottom=0;rounded=0;shadow=0;strokeWidth=1;" vertex="1" parent="WIyWlLk6GJQsqaUBKTNV-1">
          <mxGeometry x="550" y="1140" width="210" height="870" as="geometry">
            <mxRectangle x="130" y="380" width="160" height="26" as="alternateBounds" />
          </mxGeometry>
        </mxCell>
        <mxCell id="dxGweCfHrk7tsgKn44BW-112" value="+ name" style="text;align=left;verticalAlign=top;spacingLeft=4;spacingRight=4;overflow=hidden;rotatable=0;points=[[0,0.5],[1,0.5]];portConstraint=eastwest;" vertex="1" parent="dxGweCfHrk7tsgKn44BW-111">
          <mxGeometry y="26" width="210" height="26" as="geometry" />
        </mxCell>
        <mxCell id="dxGweCfHrk7tsgKn44BW-132" value="+ phones" style="text;align=left;verticalAlign=top;spacingLeft=4;spacingRight=4;overflow=hidden;rotatable=0;points=[[0,0.5],[1,0.5]];portConstraint=eastwest;" vertex="1" parent="dxGweCfHrk7tsgKn44BW-111">
          <mxGeometry y="52" width="210" height="26" as="geometry" />
        </mxCell>
        <mxCell id="dxGweCfHrk7tsgKn44BW-133" value="+ emails" style="text;align=left;verticalAlign=top;spacingLeft=4;spacingRight=4;overflow=hidden;rotatable=0;points=[[0,0.5],[1,0.5]];portConstraint=eastwest;" vertex="1" parent="dxGweCfHrk7tsgKn44BW-111">
          <mxGeometry y="78" width="210" height="26" as="geometry" />
        </mxCell>
        <mxCell id="dxGweCfHrk7tsgKn44BW-134" value="+ birthday" style="text;align=left;verticalAlign=top;spacingLeft=4;spacingRight=4;overflow=hidden;rotatable=0;points=[[0,0.5],[1,0.5]];portConstraint=eastwest;" vertex="1" parent="dxGweCfHrk7tsgKn44BW-111">
          <mxGeometry y="104" width="210" height="26" as="geometry" />
        </mxCell>
        <mxCell id="dxGweCfHrk7tsgKn44BW-135" value="+ address" style="text;align=left;verticalAlign=top;spacingLeft=4;spacingRight=4;overflow=hidden;rotatable=0;points=[[0,0.5],[1,0.5]];portConstraint=eastwest;" vertex="1" parent="dxGweCfHrk7tsgKn44BW-111">
          <mxGeometry y="130" width="210" height="26" as="geometry" />
        </mxCell>
        <mxCell id="dxGweCfHrk7tsgKn44BW-113" value="" style="line;html=1;strokeWidth=1;align=left;verticalAlign=middle;spacingTop=-1;spacingLeft=3;spacingRight=3;rotatable=0;labelPosition=right;points=[];portConstraint=eastwest;" vertex="1" parent="dxGweCfHrk7tsgKn44BW-111">
          <mxGeometry y="156" width="210" height="34" as="geometry" />
        </mxCell>
        <mxCell id="dxGweCfHrk7tsgKn44BW-115" value="+ get_field_value()" style="text;align=left;verticalAlign=top;spacingLeft=4;spacingRight=4;overflow=hidden;rotatable=0;points=[[0,0.5],[1,0.5]];portConstraint=eastwest;" vertex="1" parent="dxGweCfHrk7tsgKn44BW-111">
          <mxGeometry y="190" width="210" height="26" as="geometry" />
        </mxCell>
        <mxCell id="dxGweCfHrk7tsgKn44BW-116" value="+ get_name()" style="text;align=left;verticalAlign=top;spacingLeft=4;spacingRight=4;overflow=hidden;rotatable=0;points=[[0,0.5],[1,0.5]];portConstraint=eastwest;" vertex="1" parent="dxGweCfHrk7tsgKn44BW-111">
          <mxGeometry y="216" width="210" height="26" as="geometry" />
        </mxCell>
        <mxCell id="dxGweCfHrk7tsgKn44BW-117" value="+ get_all_values()" style="text;align=left;verticalAlign=top;spacingLeft=4;spacingRight=4;overflow=hidden;rotatable=0;points=[[0,0.5],[1,0.5]];portConstraint=eastwest;" vertex="1" parent="dxGweCfHrk7tsgKn44BW-111">
          <mxGeometry y="242" width="210" height="26" as="geometry" />
        </mxCell>
        <mxCell id="dxGweCfHrk7tsgKn44BW-118" value="+ get_phones()" style="text;align=left;verticalAlign=top;spacingLeft=4;spacingRight=4;overflow=hidden;rotatable=0;points=[[0,0.5],[1,0.5]];portConstraint=eastwest;" vertex="1" parent="dxGweCfHrk7tsgKn44BW-111">
          <mxGeometry y="268" width="210" height="26" as="geometry" />
        </mxCell>
        <mxCell id="dxGweCfHrk7tsgKn44BW-119" value="+ get_emails()" style="text;align=left;verticalAlign=top;spacingLeft=4;spacingRight=4;overflow=hidden;rotatable=0;points=[[0,0.5],[1,0.5]];portConstraint=eastwest;" vertex="1" parent="dxGweCfHrk7tsgKn44BW-111">
          <mxGeometry y="294" width="210" height="26" as="geometry" />
        </mxCell>
        <mxCell id="dxGweCfHrk7tsgKn44BW-120" value="+ get_birthday()" style="text;align=left;verticalAlign=top;spacingLeft=4;spacingRight=4;overflow=hidden;rotatable=0;points=[[0,0.5],[1,0.5]];portConstraint=eastwest;" vertex="1" parent="dxGweCfHrk7tsgKn44BW-111">
          <mxGeometry y="320" width="210" height="26" as="geometry" />
        </mxCell>
        <mxCell id="dxGweCfHrk7tsgKn44BW-121" value="+ get_address()" style="text;align=left;verticalAlign=top;spacingLeft=4;spacingRight=4;overflow=hidden;rotatable=0;points=[[0,0.5],[1,0.5]];portConstraint=eastwest;" vertex="1" parent="dxGweCfHrk7tsgKn44BW-111">
          <mxGeometry y="346" width="210" height="26" as="geometry" />
        </mxCell>
        <mxCell id="dxGweCfHrk7tsgKn44BW-122" value="+ edit_field()" style="text;align=left;verticalAlign=top;spacingLeft=4;spacingRight=4;overflow=hidden;rotatable=0;points=[[0,0.5],[1,0.5]];portConstraint=eastwest;" vertex="1" parent="dxGweCfHrk7tsgKn44BW-111">
          <mxGeometry y="372" width="210" height="26" as="geometry" />
        </mxCell>
        <mxCell id="dxGweCfHrk7tsgKn44BW-123" value="+ edit_name()" style="text;align=left;verticalAlign=top;spacingLeft=4;spacingRight=4;overflow=hidden;rotatable=0;points=[[0,0.5],[1,0.5]];portConstraint=eastwest;" vertex="1" parent="dxGweCfHrk7tsgKn44BW-111">
          <mxGeometry y="398" width="210" height="26" as="geometry" />
        </mxCell>
        <mxCell id="dxGweCfHrk7tsgKn44BW-124" value="+ edit_birthday()" style="text;align=left;verticalAlign=top;spacingLeft=4;spacingRight=4;overflow=hidden;rotatable=0;points=[[0,0.5],[1,0.5]];portConstraint=eastwest;" vertex="1" parent="dxGweCfHrk7tsgKn44BW-111">
          <mxGeometry y="424" width="210" height="26" as="geometry" />
        </mxCell>
        <mxCell id="dxGweCfHrk7tsgKn44BW-125" value="+ edit_address()" style="text;align=left;verticalAlign=top;spacingLeft=4;spacingRight=4;overflow=hidden;rotatable=0;points=[[0,0.5],[1,0.5]];portConstraint=eastwest;" vertex="1" parent="dxGweCfHrk7tsgKn44BW-111">
          <mxGeometry y="450" width="210" height="26" as="geometry" />
        </mxCell>
        <mxCell id="dxGweCfHrk7tsgKn44BW-126" value="+ remove_birthday()" style="text;align=left;verticalAlign=top;spacingLeft=4;spacingRight=4;overflow=hidden;rotatable=0;points=[[0,0.5],[1,0.5]];portConstraint=eastwest;" vertex="1" parent="dxGweCfHrk7tsgKn44BW-111">
          <mxGeometry y="476" width="210" height="26" as="geometry" />
        </mxCell>
        <mxCell id="dxGweCfHrk7tsgKn44BW-127" value="+ remove_address()" style="text;align=left;verticalAlign=top;spacingLeft=4;spacingRight=4;overflow=hidden;rotatable=0;points=[[0,0.5],[1,0.5]];portConstraint=eastwest;" vertex="1" parent="dxGweCfHrk7tsgKn44BW-111">
          <mxGeometry y="502" width="210" height="26" as="geometry" />
        </mxCell>
        <mxCell id="dxGweCfHrk7tsgKn44BW-128" value="+ is_in_list()" style="text;align=left;verticalAlign=top;spacingLeft=4;spacingRight=4;overflow=hidden;rotatable=0;points=[[0,0.5],[1,0.5]];portConstraint=eastwest;" vertex="1" parent="dxGweCfHrk7tsgKn44BW-111">
          <mxGeometry y="528" width="210" height="26" as="geometry" />
        </mxCell>
        <mxCell id="dxGweCfHrk7tsgKn44BW-129" value="+ add_field_element()" style="text;align=left;verticalAlign=top;spacingLeft=4;spacingRight=4;overflow=hidden;rotatable=0;points=[[0,0.5],[1,0.5]];portConstraint=eastwest;" vertex="1" parent="dxGweCfHrk7tsgKn44BW-111">
          <mxGeometry y="554" width="210" height="26" as="geometry" />
        </mxCell>
        <mxCell id="dxGweCfHrk7tsgKn44BW-130" value="+ add_phone_number()" style="text;align=left;verticalAlign=top;spacingLeft=4;spacingRight=4;overflow=hidden;rotatable=0;points=[[0,0.5],[1,0.5]];portConstraint=eastwest;" vertex="1" parent="dxGweCfHrk7tsgKn44BW-111">
          <mxGeometry y="580" width="210" height="26" as="geometry" />
        </mxCell>
        <mxCell id="dxGweCfHrk7tsgKn44BW-131" value="+ add_email()" style="text;align=left;verticalAlign=top;spacingLeft=4;spacingRight=4;overflow=hidden;rotatable=0;points=[[0,0.5],[1,0.5]];portConstraint=eastwest;" vertex="1" parent="dxGweCfHrk7tsgKn44BW-111">
          <mxGeometry y="606" width="210" height="26" as="geometry" />
        </mxCell>
        <mxCell id="dxGweCfHrk7tsgKn44BW-138" value="+ remove_field_element()" style="text;align=left;verticalAlign=top;spacingLeft=4;spacingRight=4;overflow=hidden;rotatable=0;points=[[0,0.5],[1,0.5]];portConstraint=eastwest;" vertex="1" parent="dxGweCfHrk7tsgKn44BW-111">
          <mxGeometry y="632" width="210" height="26" as="geometry" />
        </mxCell>
        <mxCell id="dxGweCfHrk7tsgKn44BW-139" value="+ remove_phone_number()" style="text;align=left;verticalAlign=top;spacingLeft=4;spacingRight=4;overflow=hidden;rotatable=0;points=[[0,0.5],[1,0.5]];portConstraint=eastwest;" vertex="1" parent="dxGweCfHrk7tsgKn44BW-111">
          <mxGeometry y="658" width="210" height="26" as="geometry" />
        </mxCell>
        <mxCell id="dxGweCfHrk7tsgKn44BW-140" value="+ remove_email()" style="text;align=left;verticalAlign=top;spacingLeft=4;spacingRight=4;overflow=hidden;rotatable=0;points=[[0,0.5],[1,0.5]];portConstraint=eastwest;" vertex="1" parent="dxGweCfHrk7tsgKn44BW-111">
          <mxGeometry y="684" width="210" height="26" as="geometry" />
        </mxCell>
        <mxCell id="dxGweCfHrk7tsgKn44BW-141" value="+ edit_field_element()" style="text;align=left;verticalAlign=top;spacingLeft=4;spacingRight=4;overflow=hidden;rotatable=0;points=[[0,0.5],[1,0.5]];portConstraint=eastwest;" vertex="1" parent="dxGweCfHrk7tsgKn44BW-111">
          <mxGeometry y="710" width="210" height="26" as="geometry" />
        </mxCell>
        <mxCell id="dxGweCfHrk7tsgKn44BW-142" value="+ edit_phone_number()" style="text;align=left;verticalAlign=top;spacingLeft=4;spacingRight=4;overflow=hidden;rotatable=0;points=[[0,0.5],[1,0.5]];portConstraint=eastwest;" vertex="1" parent="dxGweCfHrk7tsgKn44BW-111">
          <mxGeometry y="736" width="210" height="26" as="geometry" />
        </mxCell>
        <mxCell id="dxGweCfHrk7tsgKn44BW-146" value="+ edit_email()" style="text;align=left;verticalAlign=top;spacingLeft=4;spacingRight=4;overflow=hidden;rotatable=0;points=[[0,0.5],[1,0.5]];portConstraint=eastwest;" vertex="1" parent="dxGweCfHrk7tsgKn44BW-111">
          <mxGeometry y="762" width="210" height="26" as="geometry" />
        </mxCell>
        <mxCell id="dxGweCfHrk7tsgKn44BW-145" value="+ days_to_birthday()" style="text;align=left;verticalAlign=top;spacingLeft=4;spacingRight=4;overflow=hidden;rotatable=0;points=[[0,0.5],[1,0.5]];portConstraint=eastwest;" vertex="1" parent="dxGweCfHrk7tsgKn44BW-111">
          <mxGeometry y="788" width="210" height="26" as="geometry" />
        </mxCell>
        <mxCell id="dxGweCfHrk7tsgKn44BW-144" value="+ display_birthday_info()" style="text;align=left;verticalAlign=top;spacingLeft=4;spacingRight=4;overflow=hidden;rotatable=0;points=[[0,0.5],[1,0.5]];portConstraint=eastwest;" vertex="1" parent="dxGweCfHrk7tsgKn44BW-111">
          <mxGeometry y="814" width="210" height="26" as="geometry" />
        </mxCell>
        <mxCell id="dxGweCfHrk7tsgKn44BW-147" value="+ to_string()" style="text;align=left;verticalAlign=top;spacingLeft=4;spacingRight=4;overflow=hidden;rotatable=0;points=[[0,0.5],[1,0.5]];portConstraint=eastwest;" vertex="1" parent="dxGweCfHrk7tsgKn44BW-111">
          <mxGeometry y="840" width="210" height="26" as="geometry" />
        </mxCell>
        <mxCell id="dxGweCfHrk7tsgKn44BW-152" value="" style="group" vertex="1" connectable="0" parent="WIyWlLk6GJQsqaUBKTNV-1">
          <mxGeometry x="880" y="620" width="370" height="270" as="geometry" />
        </mxCell>
        <mxCell id="dxGweCfHrk7tsgKn44BW-82" value="Exception" style="swimlane;fontStyle=0;align=center;verticalAlign=top;childLayout=stackLayout;horizontal=1;startSize=30;horizontalStack=0;resizeParent=1;resizeLast=0;collapsible=1;marginBottom=0;rounded=0;shadow=0;strokeWidth=1;" vertex="1" parent="dxGweCfHrk7tsgKn44BW-152">
          <mxGeometry x="150" width="160" height="100" as="geometry">
            <mxRectangle x="230" y="140" width="160" height="26" as="alternateBounds" />
          </mxGeometry>
        </mxCell>
        <mxCell id="dxGweCfHrk7tsgKn44BW-84" value="..." style="text;align=left;verticalAlign=top;spacingLeft=4;spacingRight=4;overflow=hidden;rotatable=0;points=[[0,0.5],[1,0.5]];portConstraint=eastwest;" vertex="1" parent="dxGweCfHrk7tsgKn44BW-82">
          <mxGeometry y="30" width="160" height="26" as="geometry" />
        </mxCell>
        <mxCell id="dxGweCfHrk7tsgKn44BW-85" value="" style="line;html=1;strokeWidth=1;align=left;verticalAlign=middle;spacingTop=-1;spacingLeft=3;spacingRight=3;rotatable=0;labelPosition=right;points=[];portConstraint=eastwest;" vertex="1" parent="dxGweCfHrk7tsgKn44BW-82">
          <mxGeometry y="56" width="160" height="18" as="geometry" />
        </mxCell>
        <mxCell id="dxGweCfHrk7tsgKn44BW-86" value="..." style="text;align=left;verticalAlign=top;spacingLeft=4;spacingRight=4;overflow=hidden;rotatable=0;points=[[0,0.5],[1,0.5]];portConstraint=eastwest;" vertex="1" parent="dxGweCfHrk7tsgKn44BW-82">
          <mxGeometry y="74" width="160" height="26" as="geometry" />
        </mxCell>
        <mxCell id="dxGweCfHrk7tsgKn44BW-87" value="MyException" style="swimlane;fontStyle=0;align=center;verticalAlign=top;childLayout=stackLayout;horizontal=1;startSize=30;horizontalStack=0;resizeParent=1;resizeLast=0;collapsible=1;marginBottom=0;rounded=0;shadow=0;strokeWidth=1;" vertex="1" parent="dxGweCfHrk7tsgKn44BW-152">
          <mxGeometry x="60" y="265" width="160" height="70" as="geometry">
            <mxRectangle x="230" y="140" width="160" height="26" as="alternateBounds" />
          </mxGeometry>
        </mxCell>
        <mxCell id="dxGweCfHrk7tsgKn44BW-90" value="" style="line;html=1;strokeWidth=1;align=left;verticalAlign=middle;spacingTop=-1;spacingLeft=3;spacingRight=3;rotatable=0;labelPosition=right;points=[];portConstraint=eastwest;" vertex="1" parent="dxGweCfHrk7tsgKn44BW-87">
          <mxGeometry y="30" width="160" height="38" as="geometry" />
        </mxCell>
        <mxCell id="dxGweCfHrk7tsgKn44BW-246" value="" style="endArrow=block;endSize=10;endFill=0;shadow=0;strokeWidth=1;rounded=0;edgeStyle=elbowEdgeStyle;elbow=vertical;exitX=0.364;exitY=-0.017;exitDx=0;exitDy=0;exitPerimeter=0;entryX=0.167;entryY=0.006;entryDx=0;entryDy=0;entryPerimeter=0;" edge="1" parent="dxGweCfHrk7tsgKn44BW-87" target="dxGweCfHrk7tsgKn44BW-160">
          <mxGeometry width="160" relative="1" as="geometry">
            <mxPoint x="60" y="145" as="sourcePoint" />
            <mxPoint x="149" y="-33" as="targetPoint" />
            <Array as="points">
              <mxPoint x="190" y="85" />
            </Array>
          </mxGeometry>
        </mxCell>
        <mxCell id="dxGweCfHrk7tsgKn44BW-98" value="" style="endArrow=block;endSize=10;endFill=0;shadow=0;strokeWidth=1;rounded=0;edgeStyle=elbowEdgeStyle;elbow=vertical;exitX=0.357;exitY=0.005;exitDx=0;exitDy=0;exitPerimeter=0;" edge="1" parent="dxGweCfHrk7tsgKn44BW-152" source="dxGweCfHrk7tsgKn44BW-87">
          <mxGeometry width="160" relative="1" as="geometry">
            <mxPoint x="110" y="200" as="sourcePoint" />
            <mxPoint x="210" y="98" as="targetPoint" />
            <Array as="points">
              <mxPoint x="117" y="135" />
            </Array>
          </mxGeometry>
        </mxCell>
        <mxCell id="dxGweCfHrk7tsgKn44BW-99" value="" style="endArrow=block;endSize=10;endFill=0;shadow=0;strokeWidth=1;rounded=0;edgeStyle=elbowEdgeStyle;elbow=vertical;exitX=0.44;exitY=-0.043;exitDx=0;exitDy=0;exitPerimeter=0;" edge="1" parent="dxGweCfHrk7tsgKn44BW-152" source="dxGweCfHrk7tsgKn44BW-92">
          <mxGeometry width="160" relative="1" as="geometry">
            <mxPoint x="350" y="135" as="sourcePoint" />
            <mxPoint x="210" y="98" as="targetPoint" />
          </mxGeometry>
        </mxCell>
        <mxCell id="dxGweCfHrk7tsgKn44BW-92" value="MyIteratorNException" style="swimlane;fontStyle=0;align=center;verticalAlign=top;childLayout=stackLayout;horizontal=1;startSize=30;horizontalStack=0;resizeParent=1;resizeLast=0;collapsible=1;marginBottom=0;rounded=0;shadow=0;strokeWidth=1;" vertex="1" parent="dxGweCfHrk7tsgKn44BW-152">
          <mxGeometry x="191" y="145" width="160" height="70" as="geometry">
            <mxRectangle x="230" y="140" width="160" height="26" as="alternateBounds" />
          </mxGeometry>
        </mxCell>
        <mxCell id="dxGweCfHrk7tsgKn44BW-95" value="" style="line;html=1;strokeWidth=1;align=left;verticalAlign=middle;spacingTop=-1;spacingLeft=3;spacingRight=3;rotatable=0;labelPosition=right;points=[];portConstraint=eastwest;" vertex="1" parent="dxGweCfHrk7tsgKn44BW-92">
          <mxGeometry y="30" width="160" height="38" as="geometry" />
        </mxCell>
        <mxCell id="dxGweCfHrk7tsgKn44BW-159" value="" style="group" vertex="1" connectable="0" parent="WIyWlLk6GJQsqaUBKTNV-1">
          <mxGeometry x="550" y="360" width="210" height="690" as="geometry" />
        </mxCell>
        <mxCell id="dxGweCfHrk7tsgKn44BW-0" value="UserDict" style="swimlane;fontStyle=0;align=center;verticalAlign=top;childLayout=stackLayout;horizontal=1;startSize=30;horizontalStack=0;resizeParent=1;resizeLast=0;collapsible=1;marginBottom=0;rounded=0;shadow=0;strokeWidth=1;" vertex="1" parent="dxGweCfHrk7tsgKn44BW-159">
          <mxGeometry x="10" width="160" height="126" as="geometry">
            <mxRectangle x="230" y="140" width="160" height="26" as="alternateBounds" />
          </mxGeometry>
        </mxCell>
        <mxCell id="dxGweCfHrk7tsgKn44BW-38" value="+ data" style="text;align=left;verticalAlign=top;spacingLeft=4;spacingRight=4;overflow=hidden;rotatable=0;points=[[0,0.5],[1,0.5]];portConstraint=eastwest;" vertex="1" parent="dxGweCfHrk7tsgKn44BW-0">
          <mxGeometry y="30" width="160" height="26" as="geometry" />
        </mxCell>
        <mxCell id="dxGweCfHrk7tsgKn44BW-1" value="..." style="text;align=left;verticalAlign=top;spacingLeft=4;spacingRight=4;overflow=hidden;rotatable=0;points=[[0,0.5],[1,0.5]];portConstraint=eastwest;" vertex="1" parent="dxGweCfHrk7tsgKn44BW-0">
          <mxGeometry y="56" width="160" height="26" as="geometry" />
        </mxCell>
        <mxCell id="dxGweCfHrk7tsgKn44BW-4" value="" style="line;html=1;strokeWidth=1;align=left;verticalAlign=middle;spacingTop=-1;spacingLeft=3;spacingRight=3;rotatable=0;labelPosition=right;points=[];portConstraint=eastwest;" vertex="1" parent="dxGweCfHrk7tsgKn44BW-0">
          <mxGeometry y="82" width="160" height="18" as="geometry" />
        </mxCell>
        <mxCell id="dxGweCfHrk7tsgKn44BW-5" value="..." style="text;align=left;verticalAlign=top;spacingLeft=4;spacingRight=4;overflow=hidden;rotatable=0;points=[[0,0.5],[1,0.5]];portConstraint=eastwest;" vertex="1" parent="dxGweCfHrk7tsgKn44BW-0">
          <mxGeometry y="100" width="160" height="26" as="geometry" />
        </mxCell>
        <mxCell id="dxGweCfHrk7tsgKn44BW-6" value="" style="endArrow=block;endSize=10;endFill=0;shadow=0;strokeWidth=1;rounded=0;edgeStyle=elbowEdgeStyle;elbow=vertical;exitX=0.424;exitY=0;exitDx=0;exitDy=0;exitPerimeter=0;entryX=0.488;entryY=1;entryDx=0;entryDy=0;entryPerimeter=0;" edge="1" parent="dxGweCfHrk7tsgKn44BW-159" source="dxGweCfHrk7tsgKn44BW-7" target="dxGweCfHrk7tsgKn44BW-5">
          <mxGeometry width="160" relative="1" as="geometry">
            <mxPoint x="90.08999999999992" y="156.76" as="sourcePoint" />
            <mxPoint x="90" y="130" as="targetPoint" />
            <Array as="points">
              <mxPoint x="90" y="140" />
            </Array>
          </mxGeometry>
        </mxCell>
        <mxCell id="dxGweCfHrk7tsgKn44BW-7" value="AddressBook" style="swimlane;fontStyle=0;align=center;verticalAlign=top;childLayout=stackLayout;horizontal=1;startSize=26;horizontalStack=0;resizeParent=1;resizeLast=0;collapsible=1;marginBottom=0;rounded=0;shadow=0;strokeWidth=1;" vertex="1" parent="dxGweCfHrk7tsgKn44BW-159">
          <mxGeometry y="160" width="210" height="530" as="geometry">
            <mxRectangle x="130" y="380" width="160" height="26" as="alternateBounds" />
          </mxGeometry>
        </mxCell>
        <mxCell id="dxGweCfHrk7tsgKn44BW-8" value="+ username" style="text;align=left;verticalAlign=top;spacingLeft=4;spacingRight=4;overflow=hidden;rotatable=0;points=[[0,0.5],[1,0.5]];portConstraint=eastwest;" vertex="1" parent="dxGweCfHrk7tsgKn44BW-7">
          <mxGeometry y="26" width="210" height="26" as="geometry" />
        </mxCell>
        <mxCell id="dxGweCfHrk7tsgKn44BW-10" value="" style="line;html=1;strokeWidth=1;align=left;verticalAlign=middle;spacingTop=-1;spacingLeft=3;spacingRight=3;rotatable=0;labelPosition=right;points=[];portConstraint=eastwest;" vertex="1" parent="dxGweCfHrk7tsgKn44BW-7">
          <mxGeometry y="52" width="210" height="8" as="geometry" />
        </mxCell>
        <mxCell id="dxGweCfHrk7tsgKn44BW-11" value="+ display_records" style="text;align=left;verticalAlign=top;spacingLeft=4;spacingRight=4;overflow=hidden;rotatable=0;points=[[0,0.5],[1,0.5]];portConstraint=eastwest;fontStyle=4" vertex="1" parent="dxGweCfHrk7tsgKn44BW-7">
          <mxGeometry y="60" width="210" height="26" as="geometry" />
        </mxCell>
        <mxCell id="dxGweCfHrk7tsgKn44BW-12" value="+ get_username()" style="text;align=left;verticalAlign=top;spacingLeft=4;spacingRight=4;overflow=hidden;rotatable=0;points=[[0,0.5],[1,0.5]];portConstraint=eastwest;" vertex="1" parent="dxGweCfHrk7tsgKn44BW-7">
          <mxGeometry y="86" width="210" height="26" as="geometry" />
        </mxCell>
        <mxCell id="dxGweCfHrk7tsgKn44BW-14" value="+ set_username()" style="text;align=left;verticalAlign=top;spacingLeft=4;spacingRight=4;overflow=hidden;rotatable=0;points=[[0,0.5],[1,0.5]];portConstraint=eastwest;" vertex="1" parent="dxGweCfHrk7tsgKn44BW-7">
          <mxGeometry y="112" width="210" height="26" as="geometry" />
        </mxCell>
        <mxCell id="dxGweCfHrk7tsgKn44BW-18" value="+ add_record()" style="text;align=left;verticalAlign=top;spacingLeft=4;spacingRight=4;overflow=hidden;rotatable=0;points=[[0,0.5],[1,0.5]];portConstraint=eastwest;" vertex="1" parent="dxGweCfHrk7tsgKn44BW-7">
          <mxGeometry y="138" width="210" height="26" as="geometry" />
        </mxCell>
        <mxCell id="dxGweCfHrk7tsgKn44BW-17" value="+ delete_record()" style="text;align=left;verticalAlign=top;spacingLeft=4;spacingRight=4;overflow=hidden;rotatable=0;points=[[0,0.5],[1,0.5]];portConstraint=eastwest;" vertex="1" parent="dxGweCfHrk7tsgKn44BW-7">
          <mxGeometry y="164" width="210" height="26" as="geometry" />
        </mxCell>
        <mxCell id="dxGweCfHrk7tsgKn44BW-16" value="+ edit_record_name()" style="text;align=left;verticalAlign=top;spacingLeft=4;spacingRight=4;overflow=hidden;rotatable=0;points=[[0,0.5],[1,0.5]];portConstraint=eastwest;" vertex="1" parent="dxGweCfHrk7tsgKn44BW-7">
          <mxGeometry y="190" width="210" height="26" as="geometry" />
        </mxCell>
        <mxCell id="dxGweCfHrk7tsgKn44BW-24" value="+ edit_record()" style="text;align=left;verticalAlign=top;spacingLeft=4;spacingRight=4;overflow=hidden;rotatable=0;points=[[0,0.5],[1,0.5]];portConstraint=eastwest;" vertex="1" parent="dxGweCfHrk7tsgKn44BW-7">
          <mxGeometry y="216" width="210" height="26" as="geometry" />
        </mxCell>
        <mxCell id="dxGweCfHrk7tsgKn44BW-23" value="+ get_record_by_name()" style="text;align=left;verticalAlign=top;spacingLeft=4;spacingRight=4;overflow=hidden;rotatable=0;points=[[0,0.5],[1,0.5]];portConstraint=eastwest;" vertex="1" parent="dxGweCfHrk7tsgKn44BW-7">
          <mxGeometry y="242" width="210" height="26" as="geometry" />
        </mxCell>
        <mxCell id="dxGweCfHrk7tsgKn44BW-22" value="+ get_record_by_phone()" style="text;align=left;verticalAlign=top;spacingLeft=4;spacingRight=4;overflow=hidden;rotatable=0;points=[[0,0.5],[1,0.5]];portConstraint=eastwest;" vertex="1" parent="dxGweCfHrk7tsgKn44BW-7">
          <mxGeometry y="268" width="210" height="26" as="geometry" />
        </mxCell>
        <mxCell id="dxGweCfHrk7tsgKn44BW-21" value="+ get_record_by_email()" style="text;align=left;verticalAlign=top;spacingLeft=4;spacingRight=4;overflow=hidden;rotatable=0;points=[[0,0.5],[1,0.5]];portConstraint=eastwest;" vertex="1" parent="dxGweCfHrk7tsgKn44BW-7">
          <mxGeometry y="294" width="210" height="26" as="geometry" />
        </mxCell>
        <mxCell id="dxGweCfHrk7tsgKn44BW-20" value="+ get_record_by_birthday()" style="text;align=left;verticalAlign=top;spacingLeft=4;spacingRight=4;overflow=hidden;rotatable=0;points=[[0,0.5],[1,0.5]];portConstraint=eastwest;" vertex="1" parent="dxGweCfHrk7tsgKn44BW-7">
          <mxGeometry y="320" width="210" height="26" as="geometry" />
        </mxCell>
        <mxCell id="dxGweCfHrk7tsgKn44BW-19" value="+ get_record_by_days_till_birthday()" style="text;align=left;verticalAlign=top;spacingLeft=4;spacingRight=4;overflow=hidden;rotatable=0;points=[[0,0.5],[1,0.5]];portConstraint=eastwest;" vertex="1" parent="dxGweCfHrk7tsgKn44BW-7">
          <mxGeometry y="346" width="210" height="26" as="geometry" />
        </mxCell>
        <mxCell id="dxGweCfHrk7tsgKn44BW-28" value="+ get_record_by_string()" style="text;align=left;verticalAlign=top;spacingLeft=4;spacingRight=4;overflow=hidden;rotatable=0;points=[[0,0.5],[1,0.5]];portConstraint=eastwest;" vertex="1" parent="dxGweCfHrk7tsgKn44BW-7">
          <mxGeometry y="372" width="210" height="26" as="geometry" />
        </mxCell>
        <mxCell id="dxGweCfHrk7tsgKn44BW-27" value="+ get_record_by_address()" style="text;align=left;verticalAlign=top;spacingLeft=4;spacingRight=4;overflow=hidden;rotatable=0;points=[[0,0.5],[1,0.5]];portConstraint=eastwest;" vertex="1" parent="dxGweCfHrk7tsgKn44BW-7">
          <mxGeometry y="398" width="210" height="26" as="geometry" />
        </mxCell>
        <mxCell id="dxGweCfHrk7tsgKn44BW-26" value="+ store_to_file()" style="text;align=left;verticalAlign=top;spacingLeft=4;spacingRight=4;overflow=hidden;rotatable=0;points=[[0,0.5],[1,0.5]];portConstraint=eastwest;" vertex="1" parent="dxGweCfHrk7tsgKn44BW-7">
          <mxGeometry y="424" width="210" height="26" as="geometry" />
        </mxCell>
        <mxCell id="dxGweCfHrk7tsgKn44BW-25" value="+ load_from_file()" style="text;align=left;verticalAlign=top;spacingLeft=4;spacingRight=4;overflow=hidden;rotatable=0;points=[[0,0.5],[1,0.5]];portConstraint=eastwest;" vertex="1" parent="dxGweCfHrk7tsgKn44BW-7">
          <mxGeometry y="450" width="210" height="26" as="geometry" />
        </mxCell>
        <mxCell id="dxGweCfHrk7tsgKn44BW-36" value="+ iterator()" style="text;align=left;verticalAlign=top;spacingLeft=4;spacingRight=4;overflow=hidden;rotatable=0;points=[[0,0.5],[1,0.5]];portConstraint=eastwest;" vertex="1" parent="dxGweCfHrk7tsgKn44BW-7">
          <mxGeometry y="476" width="210" height="26" as="geometry" />
        </mxCell>
        <mxCell id="dxGweCfHrk7tsgKn44BW-35" value="+ to_string()" style="text;align=left;verticalAlign=top;spacingLeft=4;spacingRight=4;overflow=hidden;rotatable=0;points=[[0,0.5],[1,0.5]];portConstraint=eastwest;" vertex="1" parent="dxGweCfHrk7tsgKn44BW-7">
          <mxGeometry y="502" width="210" height="26" as="geometry" />
        </mxCell>
        <mxCell id="dxGweCfHrk7tsgKn44BW-229" value="" style="group" vertex="1" connectable="0" parent="WIyWlLk6GJQsqaUBKTNV-1">
          <mxGeometry x="827" y="1000" width="900" height="550" as="geometry" />
        </mxCell>
        <mxCell id="dxGweCfHrk7tsgKn44BW-160" value="Field" style="swimlane;fontStyle=0;align=center;verticalAlign=top;childLayout=stackLayout;horizontal=1;startSize=26;horizontalStack=0;resizeParent=1;resizeLast=0;collapsible=1;marginBottom=0;rounded=0;shadow=0;strokeWidth=1;" vertex="1" parent="dxGweCfHrk7tsgKn44BW-229">
          <mxGeometry x="390" width="160" height="230" as="geometry">
            <mxRectangle x="130" y="380" width="160" height="26" as="alternateBounds" />
          </mxGeometry>
        </mxCell>
        <mxCell id="dxGweCfHrk7tsgKn44BW-161" value="+ name" style="text;align=left;verticalAlign=top;spacingLeft=4;spacingRight=4;overflow=hidden;rotatable=0;points=[[0,0.5],[1,0.5]];portConstraint=eastwest;fontStyle=4" vertex="1" parent="dxGweCfHrk7tsgKn44BW-160">
          <mxGeometry y="26" width="160" height="26" as="geometry" />
        </mxCell>
        <mxCell id="dxGweCfHrk7tsgKn44BW-162" value="+ value" style="text;align=left;verticalAlign=top;spacingLeft=4;spacingRight=4;overflow=hidden;rotatable=0;points=[[0,0.5],[1,0.5]];portConstraint=eastwest;rounded=0;shadow=0;html=0;" vertex="1" parent="dxGweCfHrk7tsgKn44BW-160">
          <mxGeometry y="52" width="160" height="26" as="geometry" />
        </mxCell>
        <mxCell id="dxGweCfHrk7tsgKn44BW-163" value="" style="line;html=1;strokeWidth=1;align=left;verticalAlign=middle;spacingTop=-1;spacingLeft=3;spacingRight=3;rotatable=0;labelPosition=right;points=[];portConstraint=eastwest;" vertex="1" parent="dxGweCfHrk7tsgKn44BW-160">
          <mxGeometry y="78" width="160" height="8" as="geometry" />
        </mxCell>
        <mxCell id="dxGweCfHrk7tsgKn44BW-164" value="+ set_value()" style="text;align=left;verticalAlign=top;spacingLeft=4;spacingRight=4;overflow=hidden;rotatable=0;points=[[0,0.5],[1,0.5]];portConstraint=eastwest;fontStyle=0" vertex="1" parent="dxGweCfHrk7tsgKn44BW-160">
          <mxGeometry y="86" width="160" height="26" as="geometry" />
        </mxCell>
        <mxCell id="dxGweCfHrk7tsgKn44BW-165" value="+ get_value()" style="text;align=left;verticalAlign=top;spacingLeft=4;spacingRight=4;overflow=hidden;rotatable=0;points=[[0,0.5],[1,0.5]];portConstraint=eastwest;" vertex="1" parent="dxGweCfHrk7tsgKn44BW-160">
          <mxGeometry y="112" width="160" height="26" as="geometry" />
        </mxCell>
        <mxCell id="dxGweCfHrk7tsgKn44BW-167" value="+ get_name()" style="text;align=left;verticalAlign=top;spacingLeft=4;spacingRight=4;overflow=hidden;rotatable=0;points=[[0,0.5],[1,0.5]];portConstraint=eastwest;" vertex="1" parent="dxGweCfHrk7tsgKn44BW-160">
          <mxGeometry y="138" width="160" height="26" as="geometry" />
        </mxCell>
        <mxCell id="dxGweCfHrk7tsgKn44BW-166" value="+ validate()" style="text;align=left;verticalAlign=top;spacingLeft=4;spacingRight=4;overflow=hidden;rotatable=0;points=[[0,0.5],[1,0.5]];portConstraint=eastwest;fontStyle=0" vertex="1" parent="dxGweCfHrk7tsgKn44BW-160">
          <mxGeometry y="164" width="160" height="26" as="geometry" />
        </mxCell>
        <mxCell id="dxGweCfHrk7tsgKn44BW-171" value="+ __repr__()" style="text;align=left;verticalAlign=top;spacingLeft=4;spacingRight=4;overflow=hidden;rotatable=0;points=[[0,0.5],[1,0.5]];portConstraint=eastwest;fontStyle=0" vertex="1" parent="dxGweCfHrk7tsgKn44BW-160">
          <mxGeometry y="190" width="160" height="26" as="geometry" />
        </mxCell>
        <mxCell id="dxGweCfHrk7tsgKn44BW-181" value="Name" style="swimlane;fontStyle=0;align=center;verticalAlign=top;childLayout=stackLayout;horizontal=1;startSize=26;horizontalStack=0;resizeParent=1;resizeLast=0;collapsible=1;marginBottom=0;rounded=0;shadow=0;strokeWidth=1;" vertex="1" parent="dxGweCfHrk7tsgKn44BW-229">
          <mxGeometry x="283" y="410" width="160" height="110" as="geometry">
            <mxRectangle x="130" y="380" width="160" height="26" as="alternateBounds" />
          </mxGeometry>
        </mxCell>
        <mxCell id="dxGweCfHrk7tsgKn44BW-182" value="+ name" style="text;align=left;verticalAlign=top;spacingLeft=4;spacingRight=4;overflow=hidden;rotatable=0;points=[[0,0.5],[1,0.5]];portConstraint=eastwest;fontStyle=0" vertex="1" parent="dxGweCfHrk7tsgKn44BW-181">
          <mxGeometry y="26" width="160" height="26" as="geometry" />
        </mxCell>
        <mxCell id="dxGweCfHrk7tsgKn44BW-184" value="" style="line;html=1;strokeWidth=1;align=left;verticalAlign=middle;spacingTop=-1;spacingLeft=3;spacingRight=3;rotatable=0;labelPosition=right;points=[];portConstraint=eastwest;" vertex="1" parent="dxGweCfHrk7tsgKn44BW-181">
          <mxGeometry y="52" width="160" height="8" as="geometry" />
        </mxCell>
        <mxCell id="dxGweCfHrk7tsgKn44BW-190" value="Phone" style="swimlane;fontStyle=0;align=center;verticalAlign=top;childLayout=stackLayout;horizontal=1;startSize=26;horizontalStack=0;resizeParent=1;resizeLast=0;collapsible=1;marginBottom=0;rounded=0;shadow=0;strokeWidth=1;" vertex="1" parent="dxGweCfHrk7tsgKn44BW-229">
          <mxGeometry x="153" y="260" width="160" height="140" as="geometry">
            <mxRectangle x="130" y="380" width="160" height="26" as="alternateBounds" />
          </mxGeometry>
        </mxCell>
        <mxCell id="dxGweCfHrk7tsgKn44BW-191" value="+ name" style="text;align=left;verticalAlign=top;spacingLeft=4;spacingRight=4;overflow=hidden;rotatable=0;points=[[0,0.5],[1,0.5]];portConstraint=eastwest;fontStyle=0" vertex="1" parent="dxGweCfHrk7tsgKn44BW-190">
          <mxGeometry y="26" width="160" height="26" as="geometry" />
        </mxCell>
        <mxCell id="dxGweCfHrk7tsgKn44BW-192" value="- value" style="text;align=left;verticalAlign=top;spacingLeft=4;spacingRight=4;overflow=hidden;rotatable=0;points=[[0,0.5],[1,0.5]];portConstraint=eastwest;rounded=0;shadow=0;html=0;" vertex="1" parent="dxGweCfHrk7tsgKn44BW-190">
          <mxGeometry y="52" width="160" height="26" as="geometry" />
        </mxCell>
        <mxCell id="dxGweCfHrk7tsgKn44BW-193" value="" style="line;html=1;strokeWidth=1;align=left;verticalAlign=middle;spacingTop=-1;spacingLeft=3;spacingRight=3;rotatable=0;labelPosition=right;points=[];portConstraint=eastwest;" vertex="1" parent="dxGweCfHrk7tsgKn44BW-190">
          <mxGeometry y="78" width="160" height="8" as="geometry" />
        </mxCell>
        <mxCell id="dxGweCfHrk7tsgKn44BW-194" value="+ value()" style="text;align=left;verticalAlign=top;spacingLeft=4;spacingRight=4;overflow=hidden;rotatable=0;points=[[0,0.5],[1,0.5]];portConstraint=eastwest;fontStyle=0" vertex="1" parent="dxGweCfHrk7tsgKn44BW-190">
          <mxGeometry y="86" width="160" height="26" as="geometry" />
        </mxCell>
        <mxCell id="dxGweCfHrk7tsgKn44BW-197" value="+ validate()" style="text;align=left;verticalAlign=top;spacingLeft=4;spacingRight=4;overflow=hidden;rotatable=0;points=[[0,0.5],[1,0.5]];portConstraint=eastwest;fontStyle=0" vertex="1" parent="dxGweCfHrk7tsgKn44BW-190">
          <mxGeometry y="112" width="160" height="26" as="geometry" />
        </mxCell>
        <mxCell id="dxGweCfHrk7tsgKn44BW-199" value="Email" style="swimlane;fontStyle=0;align=center;verticalAlign=top;childLayout=stackLayout;horizontal=1;startSize=26;horizontalStack=0;resizeParent=1;resizeLast=0;collapsible=1;marginBottom=0;rounded=0;shadow=0;strokeWidth=1;" vertex="1" parent="dxGweCfHrk7tsgKn44BW-229">
          <mxGeometry x="453" y="470" width="160" height="140" as="geometry">
            <mxRectangle x="130" y="380" width="160" height="26" as="alternateBounds" />
          </mxGeometry>
        </mxCell>
        <mxCell id="dxGweCfHrk7tsgKn44BW-200" value="+ name" style="text;align=left;verticalAlign=top;spacingLeft=4;spacingRight=4;overflow=hidden;rotatable=0;points=[[0,0.5],[1,0.5]];portConstraint=eastwest;fontStyle=0" vertex="1" parent="dxGweCfHrk7tsgKn44BW-199">
          <mxGeometry y="26" width="160" height="26" as="geometry" />
        </mxCell>
        <mxCell id="dxGweCfHrk7tsgKn44BW-201" value="+ value" style="text;align=left;verticalAlign=top;spacingLeft=4;spacingRight=4;overflow=hidden;rotatable=0;points=[[0,0.5],[1,0.5]];portConstraint=eastwest;rounded=0;shadow=0;html=0;" vertex="1" parent="dxGweCfHrk7tsgKn44BW-199">
          <mxGeometry y="52" width="160" height="26" as="geometry" />
        </mxCell>
        <mxCell id="dxGweCfHrk7tsgKn44BW-202" value="" style="line;html=1;strokeWidth=1;align=left;verticalAlign=middle;spacingTop=-1;spacingLeft=3;spacingRight=3;rotatable=0;labelPosition=right;points=[];portConstraint=eastwest;" vertex="1" parent="dxGweCfHrk7tsgKn44BW-199">
          <mxGeometry y="78" width="160" height="8" as="geometry" />
        </mxCell>
        <mxCell id="dxGweCfHrk7tsgKn44BW-203" value="+ set_value()" style="text;align=left;verticalAlign=top;spacingLeft=4;spacingRight=4;overflow=hidden;rotatable=0;points=[[0,0.5],[1,0.5]];portConstraint=eastwest;fontStyle=0" vertex="1" parent="dxGweCfHrk7tsgKn44BW-199">
          <mxGeometry y="86" width="160" height="26" as="geometry" />
        </mxCell>
        <mxCell id="dxGweCfHrk7tsgKn44BW-204" value="+ validate()" style="text;align=left;verticalAlign=top;spacingLeft=4;spacingRight=4;overflow=hidden;rotatable=0;points=[[0,0.5],[1,0.5]];portConstraint=eastwest;fontStyle=0" vertex="1" parent="dxGweCfHrk7tsgKn44BW-199">
          <mxGeometry y="112" width="160" height="26" as="geometry" />
        </mxCell>
        <mxCell id="dxGweCfHrk7tsgKn44BW-217" value="" style="endArrow=block;endSize=10;endFill=0;shadow=0;strokeWidth=1;rounded=0;edgeStyle=elbowEdgeStyle;elbow=vertical;exitX=0.75;exitY=0;exitDx=0;exitDy=0;" edge="1" parent="dxGweCfHrk7tsgKn44BW-229" source="dxGweCfHrk7tsgKn44BW-213">
          <mxGeometry width="160" relative="1" as="geometry">
            <mxPoint x="693" y="620" as="sourcePoint" />
            <mxPoint x="470" y="230" as="targetPoint" />
            <Array as="points">
              <mxPoint x="603" y="310" />
            </Array>
          </mxGeometry>
        </mxCell>
        <mxCell id="dxGweCfHrk7tsgKn44BW-219" value="" style="endArrow=block;endSize=10;endFill=0;shadow=0;strokeWidth=1;rounded=0;edgeStyle=elbowEdgeStyle;elbow=vertical;exitX=0.364;exitY=-0.017;exitDx=0;exitDy=0;exitPerimeter=0;entryX=0.25;entryY=1;entryDx=0;entryDy=0;" edge="1" parent="dxGweCfHrk7tsgKn44BW-229" source="dxGweCfHrk7tsgKn44BW-181" target="dxGweCfHrk7tsgKn44BW-160">
          <mxGeometry width="160" relative="1" as="geometry">
            <mxPoint x="198" y="312" as="sourcePoint" />
            <mxPoint x="460" y="220" as="targetPoint" />
            <Array as="points">
              <mxPoint x="363" y="320" />
            </Array>
          </mxGeometry>
        </mxCell>
        <mxCell id="dxGweCfHrk7tsgKn44BW-221" value="" style="endArrow=block;endSize=10;endFill=0;shadow=0;strokeWidth=1;rounded=0;edgeStyle=elbowEdgeStyle;elbow=vertical;exitX=0.892;exitY=0.01;exitDx=0;exitDy=0;exitPerimeter=0;" edge="1" parent="dxGweCfHrk7tsgKn44BW-229" source="dxGweCfHrk7tsgKn44BW-190">
          <mxGeometry width="160" relative="1" as="geometry">
            <mxPoint x="260" y="330" as="sourcePoint" />
            <mxPoint x="413" y="230" as="targetPoint" />
            <Array as="points">
              <mxPoint x="363" y="250" />
            </Array>
          </mxGeometry>
        </mxCell>
        <mxCell id="dxGweCfHrk7tsgKn44BW-223" value="" style="endArrow=block;endSize=10;endFill=0;shadow=0;strokeWidth=1;rounded=0;edgeStyle=elbowEdgeStyle;elbow=vertical;exitX=0.107;exitY=-0.005;exitDx=0;exitDy=0;exitPerimeter=0;" edge="1" parent="dxGweCfHrk7tsgKn44BW-229" source="dxGweCfHrk7tsgKn44BW-199">
          <mxGeometry width="160" relative="1" as="geometry">
            <mxPoint x="440" y="330" as="sourcePoint" />
            <mxPoint x="470" y="230" as="targetPoint" />
          </mxGeometry>
        </mxCell>
        <mxCell id="dxGweCfHrk7tsgKn44BW-205" value="Birthday" style="swimlane;fontStyle=0;align=center;verticalAlign=top;childLayout=stackLayout;horizontal=1;startSize=26;horizontalStack=0;resizeParent=1;resizeLast=0;collapsible=1;marginBottom=0;rounded=0;shadow=0;strokeWidth=1;" vertex="1" parent="dxGweCfHrk7tsgKn44BW-229">
          <mxGeometry x="43" y="30" width="190" height="210" as="geometry">
            <mxRectangle x="130" y="380" width="160" height="26" as="alternateBounds" />
          </mxGeometry>
        </mxCell>
        <mxCell id="dxGweCfHrk7tsgKn44BW-206" value="+ name" style="text;align=left;verticalAlign=top;spacingLeft=4;spacingRight=4;overflow=hidden;rotatable=0;points=[[0,0.5],[1,0.5]];portConstraint=eastwest;fontStyle=0" vertex="1" parent="dxGweCfHrk7tsgKn44BW-205">
          <mxGeometry y="26" width="190" height="26" as="geometry" />
        </mxCell>
        <mxCell id="dxGweCfHrk7tsgKn44BW-207" value="- value" style="text;align=left;verticalAlign=top;spacingLeft=4;spacingRight=4;overflow=hidden;rotatable=0;points=[[0,0.5],[1,0.5]];portConstraint=eastwest;rounded=0;shadow=0;html=0;" vertex="1" parent="dxGweCfHrk7tsgKn44BW-205">
          <mxGeometry y="52" width="190" height="26" as="geometry" />
        </mxCell>
        <mxCell id="dxGweCfHrk7tsgKn44BW-208" value="" style="line;html=1;strokeWidth=1;align=left;verticalAlign=middle;spacingTop=-1;spacingLeft=3;spacingRight=3;rotatable=0;labelPosition=right;points=[];portConstraint=eastwest;" vertex="1" parent="dxGweCfHrk7tsgKn44BW-205">
          <mxGeometry y="78" width="190" height="8" as="geometry" />
        </mxCell>
        <mxCell id="dxGweCfHrk7tsgKn44BW-209" value="+ get_padded_number_string()" style="text;align=left;verticalAlign=top;spacingLeft=4;spacingRight=4;overflow=hidden;rotatable=0;points=[[0,0.5],[1,0.5]];portConstraint=eastwest;fontStyle=4" vertex="1" parent="dxGweCfHrk7tsgKn44BW-205">
          <mxGeometry y="86" width="190" height="26" as="geometry" />
        </mxCell>
        <mxCell id="dxGweCfHrk7tsgKn44BW-210" value="+ reformat_value()" style="text;align=left;verticalAlign=top;spacingLeft=4;spacingRight=4;overflow=hidden;rotatable=0;points=[[0,0.5],[1,0.5]];portConstraint=eastwest;fontStyle=4" vertex="1" parent="dxGweCfHrk7tsgKn44BW-205">
          <mxGeometry y="112" width="190" height="26" as="geometry" />
        </mxCell>
        <mxCell id="dxGweCfHrk7tsgKn44BW-212" value="+ validate()" style="text;align=left;verticalAlign=top;spacingLeft=4;spacingRight=4;overflow=hidden;rotatable=0;points=[[0,0.5],[1,0.5]];portConstraint=eastwest;fontStyle=0" vertex="1" parent="dxGweCfHrk7tsgKn44BW-205">
          <mxGeometry y="138" width="190" height="26" as="geometry" />
        </mxCell>
        <mxCell id="dxGweCfHrk7tsgKn44BW-211" value="+ value()" style="text;align=left;verticalAlign=top;spacingLeft=4;spacingRight=4;overflow=hidden;rotatable=0;points=[[0,0.5],[1,0.5]];portConstraint=eastwest;fontStyle=0" vertex="1" parent="dxGweCfHrk7tsgKn44BW-205">
          <mxGeometry y="164" width="190" height="26" as="geometry" />
        </mxCell>
        <mxCell id="dxGweCfHrk7tsgKn44BW-243" value="" style="endArrow=open;endFill=1;endSize=12;html=1;rounded=0;exitX=0.628;exitY=-0.013;exitDx=0;exitDy=0;exitPerimeter=0;" edge="1" parent="dxGweCfHrk7tsgKn44BW-229" source="dxGweCfHrk7tsgKn44BW-190">
          <mxGeometry width="160" relative="1" as="geometry">
            <mxPoint x="254.5999999999999" y="260" as="sourcePoint" />
            <mxPoint x="253" y="-50" as="targetPoint" />
          </mxGeometry>
        </mxCell>
        <mxCell id="dxGweCfHrk7tsgKn44BW-259" value="" style="endArrow=open;html=1;endSize=12;startArrow=diamondThin;startSize=14;startFill=1;edgeStyle=orthogonalEdgeStyle;align=left;verticalAlign=bottom;rounded=0;entryX=0.928;entryY=-0.005;entryDx=0;entryDy=0;entryPerimeter=0;" edge="1" parent="dxGweCfHrk7tsgKn44BW-229" target="dxGweCfHrk7tsgKn44BW-111">
          <mxGeometry x="-1" y="3" relative="1" as="geometry">
            <mxPoint x="390" y="10" as="sourcePoint" />
            <mxPoint x="-83.94000000000005" y="148.26" as="targetPoint" />
            <Array as="points">
              <mxPoint x="370" y="10" />
              <mxPoint x="370" y="11" />
              <mxPoint x="-17" y="11" />
              <mxPoint x="-17" y="60" />
              <mxPoint x="-82" y="60" />
            </Array>
          </mxGeometry>
        </mxCell>
        <mxCell id="dxGweCfHrk7tsgKn44BW-233" value="0...*" style="endArrow=open;html=1;endSize=12;startArrow=diamondThin;startSize=14;startFill=1;edgeStyle=orthogonalEdgeStyle;align=left;verticalAlign=bottom;rounded=0;" edge="1" parent="WIyWlLk6GJQsqaUBKTNV-1">
          <mxGeometry x="-1" y="3" relative="1" as="geometry">
            <mxPoint x="660" y="1140" as="sourcePoint" />
            <mxPoint x="660" y="1050" as="targetPoint" />
          </mxGeometry>
        </mxCell>
        <mxCell id="dxGweCfHrk7tsgKn44BW-234" value="" style="endArrow=open;endFill=1;endSize=12;html=1;rounded=0;exitX=0.002;exitY=0.038;exitDx=0;exitDy=0;exitPerimeter=0;entryX=1.01;entryY=0.026;entryDx=0;entryDy=0;entryPerimeter=0;" edge="1" parent="WIyWlLk6GJQsqaUBKTNV-1" source="dxGweCfHrk7tsgKn44BW-7" target="dxGweCfHrk7tsgKn44BW-57">
          <mxGeometry width="160" relative="1" as="geometry">
            <mxPoint x="320" y="498" as="sourcePoint" />
            <mxPoint x="480" y="498" as="targetPoint" />
          </mxGeometry>
        </mxCell>
        <mxCell id="dxGweCfHrk7tsgKn44BW-235" value="" style="endArrow=open;endFill=1;endSize=12;html=1;rounded=0;entryX=0.85;entryY=0.008;entryDx=0;entryDy=0;entryPerimeter=0;exitX=-0.008;exitY=0.045;exitDx=0;exitDy=0;exitPerimeter=0;" edge="1" parent="WIyWlLk6GJQsqaUBKTNV-1" source="dxGweCfHrk7tsgKn44BW-7" target="dxGweCfHrk7tsgKn44BW-39">
          <mxGeometry width="160" relative="1" as="geometry">
            <mxPoint x="548" y="640" as="sourcePoint" />
            <mxPoint x="500" y="641" as="targetPoint" />
          </mxGeometry>
        </mxCell>
        <mxCell id="dxGweCfHrk7tsgKn44BW-236" value="" style="endArrow=open;endFill=1;endSize=12;html=1;rounded=0;entryX=1.003;entryY=1.201;entryDx=0;entryDy=0;entryPerimeter=0;exitX=0;exitY=0.5;exitDx=0;exitDy=0;" edge="1" parent="WIyWlLk6GJQsqaUBKTNV-1" target="dxGweCfHrk7tsgKn44BW-59">
          <mxGeometry width="160" relative="1" as="geometry">
            <mxPoint x="341" y="620" as="sourcePoint" />
            <mxPoint x="290" y="621" as="targetPoint" />
          </mxGeometry>
        </mxCell>
        <mxCell id="dxGweCfHrk7tsgKn44BW-238" value="" style="endArrow=open;endFill=1;endSize=12;html=1;rounded=0;entryX=0.25;entryY=0;entryDx=0;entryDy=0;" edge="1" parent="WIyWlLk6GJQsqaUBKTNV-1" target="dxGweCfHrk7tsgKn44BW-87">
          <mxGeometry width="160" relative="1" as="geometry">
            <mxPoint x="760" y="530" as="sourcePoint" />
            <mxPoint x="960" y="780" as="targetPoint" />
          </mxGeometry>
        </mxCell>
        <mxCell id="dxGweCfHrk7tsgKn44BW-239" value="" style="endArrow=open;endFill=1;endSize=12;html=1;rounded=0;entryX=0;entryY=0.25;entryDx=0;entryDy=0;exitX=0.997;exitY=0.012;exitDx=0;exitDy=0;exitPerimeter=0;" edge="1" parent="WIyWlLk6GJQsqaUBKTNV-1" source="dxGweCfHrk7tsgKn44BW-111" target="dxGweCfHrk7tsgKn44BW-87">
          <mxGeometry width="160" relative="1" as="geometry">
            <mxPoint x="760" y="1160" as="sourcePoint" />
            <mxPoint x="960" y="850" as="targetPoint" />
          </mxGeometry>
        </mxCell>
        <mxCell id="dxGweCfHrk7tsgKn44BW-240" value="" style="endArrow=open;endFill=1;endSize=12;html=1;rounded=0;entryX=-0.011;entryY=0.065;entryDx=0;entryDy=0;entryPerimeter=0;exitX=1.018;exitY=0.024;exitDx=0;exitDy=0;exitPerimeter=0;" edge="1" parent="WIyWlLk6GJQsqaUBKTNV-1" source="dxGweCfHrk7tsgKn44BW-7" target="dxGweCfHrk7tsgKn44BW-101">
          <mxGeometry width="160" relative="1" as="geometry">
            <mxPoint x="1120" y="640" as="sourcePoint" />
            <mxPoint x="1280" y="640" as="targetPoint" />
          </mxGeometry>
        </mxCell>
        <mxCell id="dxGweCfHrk7tsgKn44BW-241" value="" style="endArrow=open;endFill=1;endSize=12;html=1;rounded=0;entryX=0.75;entryY=0;entryDx=0;entryDy=0;exitX=-0.011;exitY=0.1;exitDx=0;exitDy=0;exitPerimeter=0;" edge="1" parent="WIyWlLk6GJQsqaUBKTNV-1" source="dxGweCfHrk7tsgKn44BW-101" target="dxGweCfHrk7tsgKn44BW-92">
          <mxGeometry width="160" relative="1" as="geometry">
            <mxPoint x="1380" y="800" as="sourcePoint" />
            <mxPoint x="1540" y="800" as="targetPoint" />
          </mxGeometry>
        </mxCell>
        <mxCell id="dxGweCfHrk7tsgKn44BW-242" value="" style="endArrow=open;endFill=1;endSize=12;html=1;rounded=0;entryX=1;entryY=0.25;entryDx=0;entryDy=0;exitX=0;exitY=1;exitDx=0;exitDy=0;" edge="1" parent="WIyWlLk6GJQsqaUBKTNV-1" source="dxGweCfHrk7tsgKn44BW-101" target="dxGweCfHrk7tsgKn44BW-87">
          <mxGeometry width="160" relative="1" as="geometry">
            <mxPoint x="1250" y="830" as="sourcePoint" />
            <mxPoint x="1410" y="830" as="targetPoint" />
          </mxGeometry>
        </mxCell>
        <mxCell id="dxGweCfHrk7tsgKn44BW-251" value="" style="endArrow=open;endFill=1;endSize=12;html=1;rounded=0;entryX=0.25;entryY=1;entryDx=0;entryDy=0;exitX=0.575;exitY=0.002;exitDx=0;exitDy=0;exitPerimeter=0;" edge="1" parent="WIyWlLk6GJQsqaUBKTNV-1" source="dxGweCfHrk7tsgKn44BW-205" target="dxGweCfHrk7tsgKn44BW-87">
          <mxGeometry width="160" relative="1" as="geometry">
            <mxPoint x="980" y="1020" as="sourcePoint" />
            <mxPoint x="970" y="960" as="targetPoint" />
          </mxGeometry>
        </mxCell>
        <mxCell id="dxGweCfHrk7tsgKn44BW-213" value="Address" style="swimlane;fontStyle=0;align=center;verticalAlign=top;childLayout=stackLayout;horizontal=1;startSize=26;horizontalStack=0;resizeParent=1;resizeLast=0;collapsible=1;marginBottom=0;rounded=0;shadow=0;strokeWidth=1;" vertex="1" parent="WIyWlLk6GJQsqaUBKTNV-1">
          <mxGeometry x="1400" y="1630" width="160" height="90" as="geometry">
            <mxRectangle x="130" y="380" width="160" height="26" as="alternateBounds" />
          </mxGeometry>
        </mxCell>
        <mxCell id="dxGweCfHrk7tsgKn44BW-214" value="+ name" style="text;align=left;verticalAlign=top;spacingLeft=4;spacingRight=4;overflow=hidden;rotatable=0;points=[[0,0.5],[1,0.5]];portConstraint=eastwest;fontStyle=0" vertex="1" parent="dxGweCfHrk7tsgKn44BW-213">
          <mxGeometry y="26" width="160" height="26" as="geometry" />
        </mxCell>
        <mxCell id="dxGweCfHrk7tsgKn44BW-216" value="" style="line;html=1;strokeWidth=1;align=left;verticalAlign=middle;spacingTop=-1;spacingLeft=3;spacingRight=3;rotatable=0;labelPosition=right;points=[];portConstraint=eastwest;" vertex="1" parent="dxGweCfHrk7tsgKn44BW-213">
          <mxGeometry y="52" width="160" height="8" as="geometry" />
        </mxCell>
        <mxCell id="dxGweCfHrk7tsgKn44BW-262" value="0...*" style="endArrow=open;html=1;endSize=12;startArrow=diamondThin;startSize=14;startFill=1;edgeStyle=orthogonalEdgeStyle;align=left;verticalAlign=bottom;rounded=0;entryX=1;entryY=0.5;entryDx=0;entryDy=0;exitX=-0.032;exitY=0.106;exitDx=0;exitDy=0;exitPerimeter=0;" edge="1" parent="WIyWlLk6GJQsqaUBKTNV-1" source="dxGweCfHrk7tsgKn44BW-190" target="dxGweCfHrk7tsgKn44BW-135">
          <mxGeometry x="-1" y="3" relative="1" as="geometry">
            <mxPoint x="940" y="1280" as="sourcePoint" />
            <mxPoint x="1170" y="1230" as="targetPoint" />
          </mxGeometry>
        </mxCell>
        <mxCell id="dxGweCfHrk7tsgKn44BW-263" value="1" style="endArrow=open;html=1;endSize=12;startArrow=diamondThin;startSize=14;startFill=1;edgeStyle=orthogonalEdgeStyle;align=left;verticalAlign=bottom;rounded=0;entryX=1;entryY=0.5;entryDx=0;entryDy=0;exitX=0.017;exitY=0.114;exitDx=0;exitDy=0;exitPerimeter=0;" edge="1" parent="WIyWlLk6GJQsqaUBKTNV-1" source="dxGweCfHrk7tsgKn44BW-181" target="dxGweCfHrk7tsgKn44BW-118">
          <mxGeometry x="-1" y="3" relative="1" as="geometry">
            <mxPoint x="1000" y="1430" as="sourcePoint" />
            <mxPoint x="780" y="1443" as="targetPoint" />
          </mxGeometry>
        </mxCell>
        <mxCell id="dxGweCfHrk7tsgKn44BW-265" value="0...*" style="endArrow=open;html=1;endSize=12;startArrow=diamondThin;startSize=14;startFill=1;edgeStyle=orthogonalEdgeStyle;align=left;verticalAlign=bottom;rounded=0;entryX=1;entryY=0.5;entryDx=0;entryDy=0;exitX=0;exitY=0.5;exitDx=0;exitDy=0;" edge="1" parent="WIyWlLk6GJQsqaUBKTNV-1" source="dxGweCfHrk7tsgKn44BW-201" target="dxGweCfHrk7tsgKn44BW-123">
          <mxGeometry x="-1" y="3" relative="1" as="geometry">
            <mxPoint x="1230" y="1560" as="sourcePoint" />
            <mxPoint x="1170" y="1470" as="targetPoint" />
            <Array as="points">
              <mxPoint x="1010" y="1535" />
              <mxPoint x="1010" y="1551" />
            </Array>
          </mxGeometry>
        </mxCell>
        <mxCell id="dxGweCfHrk7tsgKn44BW-266" value="0...1" style="endArrow=open;html=1;endSize=12;startArrow=diamondThin;startSize=14;startFill=1;edgeStyle=orthogonalEdgeStyle;align=left;verticalAlign=bottom;rounded=0;entryX=1;entryY=0.5;entryDx=0;entryDy=0;exitX=-0.011;exitY=0.127;exitDx=0;exitDy=0;exitPerimeter=0;" edge="1" parent="WIyWlLk6GJQsqaUBKTNV-1" source="dxGweCfHrk7tsgKn44BW-213" target="dxGweCfHrk7tsgKn44BW-126">
          <mxGeometry x="-1" y="3" relative="1" as="geometry">
            <mxPoint x="1350" y="1639" as="sourcePoint" />
            <mxPoint x="1190" y="1650" as="targetPoint" />
          </mxGeometry>
        </mxCell>
        <mxCell id="dxGweCfHrk7tsgKn44BW-269" value="0...*" style="endArrow=open;html=1;endSize=12;startArrow=diamondThin;startSize=14;startFill=1;edgeStyle=orthogonalEdgeStyle;align=left;verticalAlign=bottom;rounded=0;entryX=0.997;entryY=0.023;entryDx=0;entryDy=0;entryPerimeter=0;exitX=0.014;exitY=0.06;exitDx=0;exitDy=0;exitPerimeter=0;" edge="1" parent="WIyWlLk6GJQsqaUBKTNV-1" source="dxGweCfHrk7tsgKn44BW-205" target="dxGweCfHrk7tsgKn44BW-111">
          <mxGeometry x="-1" y="3" relative="1" as="geometry">
            <mxPoint x="827" y="1094.5" as="sourcePoint" />
            <mxPoint x="987" y="1094.5" as="targetPoint" />
            <Array as="points">
              <mxPoint x="850" y="1043" />
              <mxPoint x="850" y="1160" />
            </Array>
          </mxGeometry>
        </mxCell>
      </root>
    </mxGraphModel>
  </diagram>
</mxfile>
